<mxfile host="app.diagrams.net" modified="2023-11-18T05:21:13.889Z" agent="Mozilla/5.0 (Windows NT 10.0; Win64; x64) AppleWebKit/537.36 (KHTML, like Gecko) Chrome/119.0.0.0 Safari/537.36" etag="uuAUwqxDQDKNV6piWn5x" version="22.1.3" type="github">
  <diagram name="第 1 页" id="YztnCn83Ei0kUERbmq6W">
    <mxGraphModel dx="420" dy="232" grid="1" gridSize="10" guides="1" tooltips="1" connect="1" arrows="1" fold="1" page="1" pageScale="1" pageWidth="827" pageHeight="1169" math="0" shadow="0">
      <root>
        <mxCell id="0" />
        <mxCell id="1" parent="0" />
        <mxCell id="ySReFKhwiJxHSc1QfoS0-6" style="rounded=0;orthogonalLoop=1;jettySize=auto;html=1;exitX=1;exitY=1;exitDx=0;exitDy=0;entryX=0;entryY=0.5;entryDx=0;entryDy=0;endArrow=none;endFill=0;" edge="1" parent="1" source="ySReFKhwiJxHSc1QfoS0-1" target="ySReFKhwiJxHSc1QfoS0-2">
          <mxGeometry relative="1" as="geometry" />
        </mxCell>
        <mxCell id="ySReFKhwiJxHSc1QfoS0-1" value="A" style="ellipse;whiteSpace=wrap;html=1;aspect=fixed;" vertex="1" parent="1">
          <mxGeometry x="220" y="280" width="40" height="40" as="geometry" />
        </mxCell>
        <mxCell id="ySReFKhwiJxHSc1QfoS0-7" style="rounded=0;orthogonalLoop=1;jettySize=auto;html=1;exitX=0;exitY=0.5;exitDx=0;exitDy=0;entryX=0.5;entryY=0;entryDx=0;entryDy=0;endArrow=none;endFill=0;" edge="1" parent="1" source="ySReFKhwiJxHSc1QfoS0-2" target="ySReFKhwiJxHSc1QfoS0-4">
          <mxGeometry relative="1" as="geometry" />
        </mxCell>
        <mxCell id="ySReFKhwiJxHSc1QfoS0-2" value="E" style="ellipse;whiteSpace=wrap;html=1;aspect=fixed;" vertex="1" parent="1">
          <mxGeometry x="340" y="340" width="40" height="40" as="geometry" />
        </mxCell>
        <mxCell id="ySReFKhwiJxHSc1QfoS0-8" style="rounded=0;orthogonalLoop=1;jettySize=auto;html=1;exitX=1;exitY=0.5;exitDx=0;exitDy=0;entryX=0.5;entryY=1;entryDx=0;entryDy=0;endArrow=none;endFill=0;" edge="1" parent="1" source="ySReFKhwiJxHSc1QfoS0-3" target="ySReFKhwiJxHSc1QfoS0-5">
          <mxGeometry relative="1" as="geometry" />
        </mxCell>
        <mxCell id="ySReFKhwiJxHSc1QfoS0-3" value="C" style="ellipse;whiteSpace=wrap;html=1;aspect=fixed;" vertex="1" parent="1">
          <mxGeometry x="190" y="340" width="40" height="40" as="geometry" />
        </mxCell>
        <mxCell id="ySReFKhwiJxHSc1QfoS0-9" style="rounded=0;orthogonalLoop=1;jettySize=auto;html=1;exitX=0.5;exitY=0;exitDx=0;exitDy=0;entryX=1;entryY=0.5;entryDx=0;entryDy=0;endArrow=none;endFill=0;" edge="1" parent="1" source="ySReFKhwiJxHSc1QfoS0-4" target="ySReFKhwiJxHSc1QfoS0-3">
          <mxGeometry relative="1" as="geometry" />
        </mxCell>
        <mxCell id="ySReFKhwiJxHSc1QfoS0-4" value="D" style="ellipse;whiteSpace=wrap;html=1;aspect=fixed;" vertex="1" parent="1">
          <mxGeometry x="250" y="390" width="40" height="40" as="geometry" />
        </mxCell>
        <mxCell id="ySReFKhwiJxHSc1QfoS0-10" style="rounded=0;orthogonalLoop=1;jettySize=auto;html=1;exitX=0.5;exitY=1;exitDx=0;exitDy=0;entryX=0.5;entryY=0;entryDx=0;entryDy=0;endArrow=none;endFill=0;" edge="1" parent="1" source="ySReFKhwiJxHSc1QfoS0-5" target="ySReFKhwiJxHSc1QfoS0-4">
          <mxGeometry relative="1" as="geometry" />
        </mxCell>
        <mxCell id="ySReFKhwiJxHSc1QfoS0-5" value="B" style="ellipse;whiteSpace=wrap;html=1;aspect=fixed;" vertex="1" parent="1">
          <mxGeometry x="290" y="280" width="40" height="40" as="geometry" />
        </mxCell>
      </root>
    </mxGraphModel>
  </diagram>
</mxfile>
